<svg width="150" height="150" viewBox="0 0 150 150" fill="none" xmlns="http://www.w3.org/2000/svg">
<g clip-path="url(#clip0_2549_24)">
<rect width="150" height="150" rx="14" fill="black"/>
<path d="M92.0284 60.6193L90.3139 66.946H58.2699L60.0085 60.6193H92.0284ZM75.9219 98L59.0185 77.6676L58.9943 72.3068H67.3494C69.3456 72.3068 71.0118 71.9768 72.348 71.3168C73.7003 70.6406 74.7225 69.6989 75.4148 68.4915C76.1231 67.268 76.4773 65.8352 76.4773 64.1932C76.4773 61.7301 75.7528 59.75 74.304 58.2528C72.8551 56.7557 70.5369 56.0071 67.3494 56.0071H58.2699L60.1534 48.5455H67.3494C71.4063 48.5455 74.7628 49.1733 77.419 50.429C80.0914 51.6686 82.0876 53.4233 83.4077 55.6932C84.7438 57.9631 85.4119 60.6193 85.4119 63.6619C85.4119 66.3504 84.9209 68.7491 83.9389 70.858C82.9569 72.9669 81.4115 74.6974 79.3026 76.0497C77.1937 77.402 74.4328 78.3035 71.0199 78.7543L70.7301 78.8509L85.9915 97.5653V98H75.9219ZM92.0767 48.5455L90.3139 54.9688L64.331 54.8722L66.0938 48.5455H92.0767Z" fill="white"/>
<path d="M75.3936 26C57.3588 37.6488 37.9998 37.6488 37.9998 37.6488V88.6736C41.5967 95.4229 54.6755 111.837 75.3936 123.5" stroke="white" stroke-width="4" stroke-linecap="round"/>
<path d="M75.8574 26.5C93.701 38.089 112.855 38.089 112.855 38.089V88.8521C109.296 95.5668 96.3558 111.897 75.8574 123.5" stroke="white" stroke-width="4" stroke-linecap="round"/>
</g>
<defs>
<clipPath id="clip0_2549_24">
<rect width="150" height="150" fill="white"/>
</clipPath>
</defs>
</svg>
